{
    "asset" : {
        "generator" : "Khronos glTF Blender I/O v3.4.50",
        "version" : "2.0"
    },
    "extensionsUsed" : [
        "KHR_materials_specular",
        "KHR_materials_ior"
    ],
    "scene" : 0,
    "scenes" : [
        {
            "name" : "Scene",
            "nodes" : [
                0,
                1
            ]
        },
        {
            "name" : "Scene.001"
        }
    ],
    "nodes" : [
        {
            "mesh" : 0,
            "name" : "2nd Layer (Head)",
            "scale" : [
                0.41999998688697815,
                0.41999998688697815,
                0.41999998688697815
            ],
            "translation" : [
                0.44231900572776794,
                2.694211006164551,
                -0.5703074932098389
            ]
        },
        {
            "mesh" : 1,
            "name" : "1st Layer"
        }
    ],
    "materials" : [
        {
            "alphaMode" : "MASK",
            "doubleSided" : true,
            "extensions" : {
                "KHR_materials_specular" : {
                    "specularColorFactor" : [
                        0.6637639493322205,
                        0.6637639493322205,
                        0.6637639493322205,
0.5
                    ]
                },
                "KHR_materials_ior" : {
                    "ior" : 1.4500000476837158
                }
            },
            "name" : "Skin",
            "pbrMetallicRoughness" : {
                "baseColorTexture" : {
                    "index" : 0
                },
                "metallicFactor" : 0,
                "roughnessFactor" : 0.7545454502105713
            }
        }
    ],
    "meshes" : [
        {
            "name" : "Cube.010",
            "primitives" : [
                {
                    "attributes" : {
                        "_.SCULPT_FACE_SET" : 0,
                        "POSITION" : 1,
                        "TEXCOORD_0" : 2,
                        "TEXCOORD_1" : 3,
                        "NORMAL" : 4,
                        "TANGENT" : 5
                    },
                    "indices" : 6,
                    "material" : 0
                }
            ]
        },
        {
            "name" : "Cube.011",
            "primitives" : [
                {
                    "attributes" : {
                        "POSITION" : 7,
                        "TEXCOORD_0" : 8,
                        "TEXCOORD_1" : 9,
                        "NORMAL" : 10
                    },
                    "indices" : 11,
                    "material" : 0
                }
            ]
        }
    ],
    "textures" : [
        {
            "sampler" : 0,
            "source" : 0
        }
    ],
    "images" : [
        {
            "bufferView" : 7,
            "mimeType" : "image/png",
            "name" : "\u30b7\u30e3\u30fc\u30af\u3093\u3000\u30b9\u30ad\u30f3"
        }
    ],
    "accessors" : [
        {
            "bufferView" : 0,
            "componentType" : 5126,
            "count" : 24,
            "type" : "SCALAR"
        },
        {
            "bufferView" : 1,
            "componentType" : 5126,
            "count" : 24,
            "max" : [
                1,
                1,
                1
            ],
            "min" : [
                -1,
                -1,
                -1
            ],
            "type" : "VEC3"
        },
        {
            "bufferView" : 2,
            "componentType" : 5126,
            "count" : 24,
            "type" : "VEC2"
        },
        {
            "bufferView" : 3,
            "componentType" : 5126,
            "count" : 24,
            "type" : "VEC2"
        },
        {
            "bufferView" : 4,
            "componentType" : 5126,
            "count" : 24,
            "type" : "VEC3"
        },
        {
            "bufferView" : 5,
            "componentType" : 5126,
            "count" : 24,
            "type" : "VEC4"
        },
        {
            "bufferView" : 6,
            "componentType" : 5123,
            "count" : 36,
            "type" : "SCALAR"
        },
        {
            "bufferView" : 8,
            "componentType" : 5126,
            "count" : 3817,
            "max" : [
                1.242319941520691,
                3.0741937160491943,
                -0.1690061092376709
            ],
            "min" : [
                -0.3576815128326416,
                -0.12580665946006775,
                -0.9690070748329163
            ],
            "type" : "VEC3"
        },
        {
            "bufferView" : 9,
            "componentType" : 5126,
            "count" : 3817,
            "type" : "VEC2"
        },
        {
            "bufferView" : 10,
            "componentType" : 5126,
            "count" : 3817,
            "type" : "VEC2"
        },
        {
            "bufferView" : 11,
            "componentType" : 5126,
            "count" : 3817,
            "type" : "VEC3"
        },
        {
            "bufferView" : 12,
            "componentType" : 5123,
            "count" : 6444,
            "type" : "SCALAR"
        }
    ],
    "bufferViews" : [
        {
            "buffer" : 0,
            "byteLength" : 96,
            "byteOffset" : 0,
            "target" : 34962
        },
        {
            "buffer" : 0,
            "byteLength" : 288,
            "byteOffset" : 96,
            "target" : 34962
        },
        {
            "buffer" : 0,
            "byteLength" : 192,
            "byteOffset" : 384,
            "target" : 34962
        },
        {
            "buffer" : 0,
            "byteLength" : 192,
            "byteOffset" : 576,
            "target" : 34962
        },
        {
            "buffer" : 0,
            "byteLength" : 288,
            "byteOffset" : 768,
            "target" : 34962
        },
        {
            "buffer" : 0,
            "byteLength" : 384,
            "byteOffset" : 1056,
            "target" : 34962
        },
        {
            "buffer" : 0,
            "byteLength" : 72,
            "byteOffset" : 1440,
            "target" : 34963
        },
        {
            "buffer" : 0,
            "byteLength" : 1540,
            "byteOffset" : 1512
        },
        {
            "buffer" : 0,
            "byteLength" : 45804,
            "byteOffset" : 3052,
            "target" : 34962
        },
        {
            "buffer" : 0,
            "byteLength" : 30536,
            "byteOffset" : 48856,
            "target" : 34962
        },
        {
            "buffer" : 0,
            "byteLength" : 30536,
            "byteOffset" : 79392,
            "target" : 34962
        },
        {
            "buffer" : 0,
            "byteLength" : 45804,
            "byteOffset" : 109928,
            "target" : 34962
        },
        {
            "buffer" : 0,
            "byteLength" : 12888,
            "byteOffset" : 155732,
            "target" : 34963
        }
    ],
    "samplers" : [
        {
            "magFilter" : 9728,
            "minFilter" : 9984
        }
    ],
    "buffers" : [
        {
            "byteLength" : 168620,
            "uri" : "data:application/octet-stream;base64,"
        }
    ]
}
